<svg xmlns="http://www.w3.org/2000/svg" width="48" height="48" fill="none" viewBox="0 0 48 48"><path fill="#000" d="M33.332 14.625q-.163-.002-.322.006h-.816q-.017 0-.032.002h-.022l-.037.001h-.015q-.02 0-.04.004h-.018l-.034.002q-.011 0-.022.002-.016-.001-.034.004h-.02l-.11.01-.172.02h-.011l-.036.003h-.003q-.02.001-.04.006h-.005l-.034.003q-.007 0-.015.002-.013.002-.03.004h-.01q-.021.002-.038.005l-.041.006h-.004q-.239.036-.477.088-.041.009-.086.018h-.002a8.4 8.4 0 0 0-1.59.531l-.007.004q-.08.035-.163.075-.032.016-.065.033l-.06.03-.074.039-.058.03-.028.015-.151.084q-.037.02-.073.04-.106.06-.209.122l-.073.043c-1.597.965-2.965 2.285-4.247 3.733q-.36.361-.72.728a9.37 9.37 0 0 0-8.615-5.693c-5.151 0-9.33 4.171-9.33 9.315s4.179 9.315 9.33 9.315q.163.001.323-.005h.816q.016 0 .031-.002h.023q.018 0 .037-.002h.015l.039-.004h.019l.033-.002q.012 0 .023-.002.016 0 .033-.003h.02l.11-.011.172-.02h.012l.035-.003h.004l.04-.005h.005q.016-.002.033-.004.008 0 .015-.002c.01 0 .019-.004.03-.004h.011q.02-.002.038-.005l.04-.006h.004a9 9 0 0 0 .478-.087l.086-.02h.002a8.4 8.4 0 0 0 1.59-.53l.007-.004q.081-.035.162-.074l.066-.034.06-.03.074-.039.058-.03.028-.014.15-.084.074-.041.209-.121q.036-.023.072-.043c1.598-.965 2.965-2.286 4.247-3.734q.361-.361.72-.728a9.33 9.33 0 0 0 8.61 5.72c5.151 0 9.33-4.172 9.33-9.316s-4.173-9.341-9.325-9.341m-13.326 9.121s-.006.008-.01.01l-.44.447a99 99 0 0 1-.763.76c-.517.505-1.026.984-1.534 1.427q-.08.07-.16.138l-.05.043-.114.096-.097.082q-.03.027-.064.053l-.306.25-.01.009q-.305.243-.61.463c-.372.27-.744.517-1.115.729q-.048.027-.095.054l-.013.007q-.12.068-.24.129l-.01.006-.092.046q-.112.057-.222.108l-.1.047q-.03.012-.056.024-.194.087-.387.158h-.004l-.074.028h-.004l-.048.017h-.004l-.099.034q-.005 0-.01.003l-.068.023-.086.028-.047.013q-.017.004-.031.009-.024.007-.047.013l-.03.008q-.025.006-.048.012-.005 0-.01.002-.082.022-.164.041l-.013.004q-.022.007-.045.01-.016.003-.034.007l-.046.01q-.216.044-.431.07-.035.006-.07.007-.018 0-.038.004l-.041.004h-.014l-.113.01h-.008l-.04.001q-.36.021-.723-.015c-2.405-.287-3.653-2.012-3.653-5.19 0-4.486 2.785-7.743 7.279-7.743 3.65 0 6.437 2.113 7.355 5.31-.705.738-1.405 1.475-2.103 2.185zm13.246 7.883c-3.65 0-6.437-2.113-7.355-5.31.705-.738 1.405-1.475 2.103-2.185q.004-.007.009-.01l.44-.447a97 97 0 0 1 .763-.76 38 38 0 0 1 1.534-1.427l.16-.138.051-.043.114-.096.097-.082q.03-.027.063-.053l.306-.25.012-.008q.303-.244.608-.464c.373-.27.744-.516 1.116-.729l.095-.054.013-.007a8 8 0 0 1 .25-.134q.045-.025.091-.047.112-.057.222-.108l.101-.047q.028-.011.056-.024a7 7 0 0 1 .386-.158h.004l.075-.028h.003l.049-.017h.004l.099-.033q.004 0 .009-.004l.069-.023.086-.027q.024-.009.046-.014.018-.004.032-.009.023-.007.047-.013l.03-.007q.023-.007.048-.013.005 0 .01-.002.082-.022.164-.041l.013-.004.044-.01q.018-.003.034-.007l.047-.009q.215-.046.43-.07.035-.006.07-.008l.039-.004.041-.004h.013l.114-.009h.007q.02 0 .041-.002.36-.021.722.015c2.406.287 3.654 2.012 3.654 5.19 0 4.486-2.786 7.743-7.279 7.743z"/></svg>